<?xml version="1.0" encoding="utf-8"?>
<svg xmlns="http://www.w3.org/2000/svg" viewBox="0 0 500 500" xmlns:bx="https://boxy-svg.com">
  <defs>
    <linearGradient id="gradient-2" bx:pinned="true">
      <stop offset="0" style="stop-color: rgb(42, 6, 167);"/>
      <stop offset="1" style="stop-color: rgb(98, 3, 3);"/>
    </linearGradient>
    <linearGradient id="gradient-0" bx:pinned="true">
      <stop offset="0" style="stop-color: rgb(255, 171, 171);"/>
      <stop offset="0.244" style="stop-color: rgb(255, 0, 0);"/>
      <stop offset="0.429" style="stop-color: rgb(200, 174, 255);"/>
      <stop offset="0.724" style="stop-color: rgb(96, 129, 198);"/>
      <stop offset="1" style="stop-color: rgb(40, 107, 49);"/>
    </linearGradient>
    <linearGradient id="gradient-2-1" href="#gradient-2" gradientUnits="userSpaceOnUse" x1="244.992" y1="7.126" x2="244.992" y2="498.301"/>
    <linearGradient id="gradient-0-0" href="#gradient-0" gradientUnits="userSpaceOnUse" x1="244.992" y1="7.126" x2="244.992" y2="498.301"/>
  </defs>
  <path d="M 147.62 7.164 C 151.713 6.905 159.868 7.934 165.911 10.975 C 172.971 14.528 184.273 26.536 186.87 28.885 C 187.705 29.64 187.248 29.287 188.013 30.028 C 190.17 32.118 200.056 41.177 203.637 44.89 C 205.992 47.332 204.911 46.943 208.591 50.606 C 219.759 61.724 284.001 118.326 298.143 132.536 C 304.203 138.626 303.295 139.058 307.67 143.587 C 313.957 150.097 326.187 160.112 333.964 168.357 C 341.161 175.988 350.188 184.669 353.017 191.221 C 354.999 195.811 354.872 198.581 353.779 203.416 C 352.273 210.081 347.076 218.616 341.585 227.804 C 334.689 239.344 327.355 250.318 314.148 267.436 C 294.067 293.462 247.127 340.806 225.739 372.612 C 208.622 398.067 198.26 422.798 189.918 442.729 C 183.405 458.291 181.519 473.984 176.962 483.122 C 173.894 489.275 171.372 493.253 167.435 495.698 C 163.774 497.971 158.191 498.825 154.479 497.984 C 151.036 497.204 147.575 494.611 145.714 491.506 C 143.663 488.083 142.612 484.2 143.428 477.787 C 144.801 466.994 153.165 447.62 160.957 429.772 C 170.331 408.304 181.722 381.421 197.54 357.369 C 214.897 330.976 253.555 288.2 262.703 278.487 C 265.739 275.264 264.969 277.255 267.657 274.295 C 274.467 266.796 299.474 235.31 308.051 221.707 C 313.814 212.567 319.219 205.902 318.721 199.605 C 318.284 194.082 312.919 190.729 308.051 185.505 C 301.668 178.657 287.81 168.07 282.138 162.26 C 278.513 158.547 278.017 156.815 274.897 153.495 C 270.868 149.206 261.858 141.503 259.274 138.634 C 258.057 137.283 259.102 137.769 257.368 135.966 C 250.951 129.295 198.338 84.257 192.967 78.424 C 191.725 77.075 192.674 77.438 191.824 76.519 C 189.939 74.483 181.334 68.776 179.248 66.23 C 178.088 64.813 178.691 64.028 177.724 62.8 C 176.356 61.064 172.121 58.483 170.865 57.084 C 170.145 56.282 170.476 56.002 169.722 55.179 C 168.328 53.659 163.962 50.858 161.719 48.701 C 159.736 46.794 159.364 45.15 156.765 42.985 C 152.775 39.66 141.401 35.868 138.093 31.171 C 135.404 27.354 134.965 21.927 135.806 18.215 C 136.587 14.772 140.053 11.28 142.285 9.45 C 144.019 8.028 145.055 7.326 147.62 7.164 Z" style="stroke-width: 10px; stroke: url(&quot;#gradient-2-1&quot;); fill: url(&quot;#gradient-0-0&quot;);"/>
</svg>