<?xml version="1.0" encoding="utf-8"?>
<svg xmlns="http://www.w3.org/2000/svg" viewBox="0 0 500 500" xmlns:bx="https://boxy-svg.com" width="500px" height="500px"><defs><linearGradient id="gradient-2" bx:pinned="true"><stop offset="0" style="stop-color: rgb(255, 0, 0);"/><stop offset="0.348" style="stop-color: rgb(42, 58, 140);"/><stop offset="0.647" style="stop-color: rgb(145, 59, 162);"/><stop offset="1" style="stop-color: rgb(127, 226, 156);"/></linearGradient><linearGradient id="gradient-2-0" href="#gradient-2" gradientUnits="userSpaceOnUse" x1="254.961" y1="180.385" x2="254.961" y2="471.429"/><linearGradient id="gradient-1" bx:pinned="true"><stop offset="0" style="stop-color: rgb(65, 0, 0);"/><stop offset="0.304" style="stop-color: rgb(0, 14, 86);"/><stop offset="0.794" style="stop-color: rgb(68, 0, 61);"/><stop offset="1" style="stop-color: rgb(15, 65, 0);"/></linearGradient><linearGradient id="gradient-1-0" href="#gradient-1" gradientUnits="userSpaceOnUse" x1="254.961" y1="180.385" x2="254.961" y2="471.429"/><bx:export><bx:file format="svg" normalization="{&quot;embedExternalFonts&quot;:true,&quot;removeBoxySVGMetadata&quot;:true,&quot;resetTransformOrigins&quot;:true}" path="FIle.svg"/><bx:file format="png" path="File.png"/></bx:export></defs><g><path d="M 37.091 94.037 L 38.013 90.94 C 77.193 -4.937 71.385 36.083 98.082 19.455 L 156.762 22.411 C 224.518 18.745 228.774 73.721 237.805 81.509 L 472.831 94.037 L 472.831 471.429 L 37.091 471.429 L 37.091 94.037 Z" style="fill: url(&quot;#gradient-2-0&quot;); stroke-width: 14px; stroke: url(&quot;#gradient-1-0&quot;);"/></g><rect x="58.263" y="125.321" width="394.164" height="25.074" style="stroke: rgb(0, 0, 0);"/><rect x="58.263" y="161.428" width="394.164" height="25.074" style="stroke: rgb(0, 0, 0);"/><rect x="58.263" y="204.555" width="394.164" height="25.074" style="stroke: rgb(0, 0, 0);"/><rect x="58.263" y="247.682" width="394.164" height="25.074" style="stroke: rgb(0, 0, 0);"/><rect x="58.263" y="285.795" width="394.164" height="25.074" style="stroke: rgb(0, 0, 0);"/><rect x="58.263" y="325.913" width="394.164" height="25.074" style="stroke: rgb(0, 0, 0);"/><rect x="58.263" y="372.049" width="394.164" height="25.074" style="stroke: rgb(0, 0, 0);"/><rect x="58.263" y="413.17" width="394.164" height="25.074" style="stroke: rgb(0, 0, 0);"/></svg>