<?xml version="1.0" encoding="utf-8"?>
<svg xmlns="http://www.w3.org/2000/svg" viewBox="0 0 500 500" style="" xmlns:bx="https://boxy-svg.com">
  <defs>
    <linearGradient id="gradient-1" bx:pinned="true">
      <stop offset="0" style="stop-color: rgb(0, 255, 115);"/>
      <stop offset="0.196" style="stop-color: rgb(17, 135, 170);"/>
      <stop offset="0.516" style="stop-color: rgb(112, 36, 76);"/>
      <stop offset="0.723" style="stop-color: rgb(92, 50, 50);"/>
      <stop offset="1" style="stop-color: rgb(45, 69, 112);"/>
    </linearGradient>
    <linearGradient id="gradient-0" bx:pinned="true">
      <stop offset="0" style="stop-color: rgb(35, 35, 35);"/>
      <stop offset="0.158" style="stop-color: rgb(48, 48, 70);"/>
      <stop offset="0.478" style="stop-color: rgb(22, 22, 41);"/>
      <stop offset="0.973" style="stop-color: rgb(53, 1, 1);"/>
    </linearGradient>
    <linearGradient id="gradient-1-0" href="#gradient-1" gradientUnits="userSpaceOnUse" x1="235.166" y1="39.914" x2="235.166" y2="496.462"/>
    <linearGradient id="gradient-0-0" href="#gradient-0" gradientUnits="userSpaceOnUse" x1="235.166" y1="39.914" x2="235.166" y2="496.462"/>
  </defs>
  <path d="M 239.242 42.444 C 271.737 39.134 318.105 38.732 340.886 43.292 C 355.439 46.204 362.42 49.195 370.955 57.268 C 380.866 66.641 391.38 97.231 394.672 99.196 C 395.616 99.759 395.455 99.136 396.366 97.925 C 399.452 93.825 410.151 64.762 417.542 58.538 C 422.343 54.495 428.458 54.816 432.365 55.15 C 435.381 55.408 437.744 56.125 439.565 58.538 C 442.082 61.874 444.167 68.071 443.8 75.902 C 443.234 87.982 434.738 113.613 429.401 126.724 C 425.336 136.71 421.641 145.195 416.272 150.018 C 411.86 153.98 405.685 155.037 401.025 155.947 C 397.047 156.724 396.545 157.138 390.014 155.947 C 373.922 153.012 302.513 136.442 289.64 125.454 C 283.416 120.141 285.001 113.285 285.405 108.937 C 285.719 105.555 287.057 102.781 289.64 100.89 C 292.814 98.567 297.117 96.985 304.463 97.502 C 317.63 98.427 362.949 116.71 367.144 116.136 C 368.029 116.015 367.7 115.563 367.567 114.866 C 367.268 113.293 363.766 107.521 362.485 105.972 C 361.803 105.147 361.626 105.785 360.791 104.701 C 358.432 101.64 353.693 84.988 347.238 79.714 C 341.18 74.764 335.058 74.331 323.945 72.938 C 306.069 70.697 271.9 69.636 244.324 72.938 C 214.74 76.479 175.34 87.572 151.998 94.96 C 135.126 100.3 124.001 104.211 113.034 111.054 C 103.02 117.303 96.175 122.987 88.047 133.5 C 77.548 147.079 64.608 169.483 57.553 189.405 C 50.421 209.547 46.25 236.911 45.695 253.779 C 45.289 266.116 47.419 272.055 49.93 283.425 C 53.042 297.516 59.402 319.312 64.33 332.553 C 68.203 342.96 71.019 349.694 76.188 357.964 C 81.715 366.805 93.43 380.345 96.94 383.798 C 98.293 385.129 97.24 384.047 99.482 385.493 C 110.082 392.329 189.578 457.022 224.842 465.114 C 250.637 471.032 273.534 459.622 291.758 453.255 C 306.832 447.989 324.729 435.195 328.604 432.503 C 329.699 431.742 329.043 432.035 329.874 431.232 C 332.12 429.062 339.498 425.042 345.544 416.409 C 356.24 401.138 378.019 355.928 385.355 335.941 C 390.164 322.839 388.264 318.695 392.131 305.448 C 397.886 285.735 415.111 244.399 420.083 225.827 C 423.177 214.273 424.508 207.372 424.318 200.416 C 424.17 194.97 420.537 190.658 420.93 186.863 C 421.262 183.668 422.582 180.708 425.165 178.817 C 428.339 176.494 435.623 174.771 439.988 175.429 C 444.005 176.033 448.067 179.234 450.576 181.781 C 452.76 183.997 453.971 185.794 454.812 189.405 C 456.047 194.715 456.965 199.91 454.812 212.274 C 450.27 238.346 427.231 315.418 412.46 353.729 C 400.731 384.149 387.506 410.838 376.038 428.268 C 367.937 440.579 361.073 446.72 352.744 454.102 C 344.789 461.153 336.176 466.92 327.333 471.89 C 318.656 476.766 311.162 480.438 300.228 483.748 C 286.741 487.832 265.756 491.1 251.1 493.066 C 238.544 494.75 228.835 498.014 217.219 495.607 C 204.212 492.911 181.281 478.886 176.985 475.278 C 175.563 474.084 177.09 474.066 175.714 472.737 C 171.45 468.617 139.744 450.599 135.48 446.479 C 134.105 445.15 135.098 444.745 134.21 443.938 C 132.869 442.718 128.351 441.769 127.01 440.55 C 126.122 439.742 127.204 439.352 125.74 438.009 C 120.846 433.522 80.844 411.299 76.188 407.939 C 75.028 407.102 75.685 407.522 74.918 406.668 C 72.864 404.384 63.419 392.859 61.365 390.575 C 60.597 389.721 60.816 390.217 60.095 389.304 C 58.111 386.794 51.689 378.572 47.389 370.669 C 41.85 360.488 35.394 346.666 30.448 331.706 C 24.702 314.323 18.389 288.825 16.049 271.567 C 14.155 257.6 13.516 249.428 15.202 235.144 C 17.355 216.9 24.717 187.852 31.295 169.923 C 36.69 155.219 42.938 144.744 49.93 133.5 C 56.684 122.64 66.39 109.885 72.377 103.431 C 76.25 99.255 80.471 97.194 82.117 95.384 C 82.974 94.442 82.795 93.883 83.388 93.266 C 84.034 92.596 84.59 92.481 85.929 91.572 C 88.555 89.79 92.725 85.785 99.482 82.255 C 110.348 76.577 129.432 68.02 149.456 61.926 C 174.232 54.387 208.035 45.624 239.242 42.444 Z" style="paint-order: fill; fill: url(&quot;#gradient-1-0&quot;); stroke-width: 9px; stroke-dashoffset: -100px; stroke: url(&quot;#gradient-0-0&quot;);"/>
</svg>